<svg width="334" height="71" viewBox="0 0 334 71" fill="none" xmlns="http://www.w3.org/2000/svg">
<path d="M30.1958 14.7082C31.3932 11.023 36.6068 11.023 37.8042 14.7082L40.7354 23.7295C41.2709 25.3776 42.8067 26.4934 44.5396 26.4934L54.0252 26.4934C57.9001 26.4934 59.5112 31.4519 56.3763 33.7295L48.7024 39.305C47.3004 40.3235 46.7138 42.129 47.2493 43.7771L50.1805 52.7984C51.3779 56.4836 47.16 59.5481 44.0251 57.2705L36.3511 51.695C34.9492 50.6765 33.0508 50.6765 31.6489 51.695L23.9749 57.2705C20.84 59.5481 16.6221 56.4836 17.8195 52.7984L20.7507 43.7771C21.2862 42.129 20.6996 40.3235 19.2976 39.305L11.6237 33.7295C8.48881 31.4519 10.0999 26.4934 13.9748 26.4934L23.4604 26.4934C25.1933 26.4934 26.7291 25.3776 27.2646 23.7295L30.1958 14.7082Z" fill="#0E7440"/>
<path d="M98.7011 14.5222C99.9089 10.8589 105.091 10.8589 106.299 14.5222L109.34 23.7459C109.88 25.3856 111.412 26.4934 113.139 26.4934L122.854 26.4934C126.743 26.4934 128.345 31.4816 125.183 33.7457L117.424 39.3012C116.001 40.3197 115.406 42.1444 115.954 43.8059L118.941 52.8666C120.153 56.5416 115.96 59.6241 112.813 57.3714L104.829 51.6542C103.436 50.6572 101.564 50.6572 100.171 51.6542L92.1866 57.3714C89.0404 59.6241 84.8474 56.5416 86.0591 52.8666L89.0464 43.8059C89.5942 42.1444 88.9986 40.3197 87.5762 39.3012L79.8172 33.7457C76.6552 31.4816 78.2569 26.4934 82.1459 26.4934L91.8613 26.4934C93.5878 26.4934 95.1195 25.3856 95.6601 23.7459L98.7011 14.5222Z" fill="#0E7440"/>
<path d="M167.196 14.7082C168.393 11.023 173.607 11.023 174.804 14.7082L177.735 23.7295C178.271 25.3776 179.807 26.4934 181.54 26.4934L191.025 26.4934C194.9 26.4934 196.511 31.4519 193.376 33.7295L185.702 39.305C184.3 40.3235 183.714 42.129 184.249 43.7771L187.18 52.7984C188.378 56.4836 184.16 59.5481 181.025 57.2705L173.351 51.695C171.949 50.6765 170.051 50.6765 168.649 51.695L160.975 57.2705C157.84 59.5481 153.622 56.4836 154.82 52.7984L157.751 43.7771C158.286 42.129 157.7 40.3235 156.298 39.305L148.624 33.7295C145.489 31.4519 147.1 26.4934 150.975 26.4934L160.46 26.4934C162.193 26.4934 163.729 25.3776 164.265 23.7295L167.196 14.7082Z" fill="#0E7440"/>
<path d="M232.196 14.7082C233.393 11.023 238.607 11.023 239.804 14.7082L242.735 23.7295C243.271 25.3776 244.807 26.4934 246.54 26.4934L256.025 26.4934C259.9 26.4934 261.511 31.4519 258.376 33.7295L250.702 39.305C249.3 40.3235 248.714 42.129 249.249 43.7771L252.18 52.7984C253.378 56.4836 249.16 59.5481 246.025 57.2705L238.351 51.695C236.949 50.6765 235.051 50.6765 233.649 51.695L225.975 57.2705C222.84 59.5481 218.622 56.4836 219.82 52.7984L222.751 43.7771C223.286 42.129 222.7 40.3235 221.298 39.305L213.624 33.7295C210.489 31.4519 212.1 26.4934 215.975 26.4934L225.46 26.4934C227.193 26.4934 228.729 25.3776 229.265 23.7295L232.196 14.7082Z" fill="#0E7440"/>
<path d="M296.196 11.7082C297.393 8.02296 302.607 8.02296 303.804 11.7082L306.735 20.7295C307.271 22.3776 308.807 23.4934 310.54 23.4934L320.025 23.4934C323.9 23.4934 325.511 28.4519 322.376 30.7295L314.702 36.305C313.3 37.3235 312.714 39.129 313.249 40.7771L316.18 49.7984C317.378 53.4836 313.16 56.5481 310.025 54.2705L302.351 48.695C300.949 47.6765 299.051 47.6765 297.649 48.695L289.975 54.2705C286.84 56.5481 282.622 53.4836 283.82 49.7984L286.751 40.7771C287.286 39.129 286.7 37.3235 285.298 36.305L277.624 30.7295C274.489 28.4519 276.1 23.4934 279.975 23.4934L289.46 23.4934C291.193 23.4934 292.729 22.3776 293.265 20.7295L296.196 11.7082Z" fill="#0E7440"/>
</svg>
